<?xml version="1.0" encoding="UTF-8" standalone="no"?>
<!-- Generator: Gravit.io -->
<svg xmlns="http://www.w3.org/2000/svg" xmlns:xlink="http://www.w3.org/1999/xlink" style="isolation:isolate" viewBox="808 404 448 384" width="448pt" height="384pt"><g><g><path d=" M 1106.666 471.202 C 1125.334 471.202 1140.264 456.267 1140.264 437.601 C 1140.264 418.935 1125.334 404 1106.666 404 C 1088 404 1073.07 418.935 1073.07 437.601 C 1073.07 456.267 1088 471.202 1106.666 471.202 Z  M 1162.666 601.334 C 1111.334 601.334 1069.334 643.334 1069.334 694.667 C 1069.334 746 1111.334 788 1162.666 788 C 1214 788 1256 746 1256 694.667 C 1256 643.334 1214 601.334 1162.666 601.334 Z  M 1162.666 760 C 1126.264 760 1097.334 731.07 1097.334 694.667 C 1097.334 658.264 1126.264 629.334 1162.666 629.334 C 1199.07 629.334 1228 658.264 1228 694.667 C 1228 731.07 1199.07 760 1162.666 760 Z  M 1081.597 564 L 1160 564 L 1160 532 L 1101.155 532 L 1066.535 471.866 C 1060.93 462.533 1050.666 456.002 1039.465 456.002 C 1031.066 456.002 1022.667 459.734 1017.066 465.335 L 945.334 534.4 C 939.733 540.001 936.001 548.4 936.001 556.799 C 936.001 568.93 945.203 578.264 954.536 583.864 L 1016 622.134 L 1016 708 L 1048 708 L 1048 596 L 1008.667 564 L 1051.596 519.467 L 1081.597 564 Z  M 901.333 601.334 C 850 601.334 808 643.334 808 694.667 C 808 746 850 788 901.333 788 C 952.666 788 994.666 746 994.666 694.667 C 994.666 643.334 952.667 601.334 901.333 601.334 Z  M 901.333 760 C 864.934 760 836 731.07 836 694.667 C 836 658.264 864.934 629.334 901.333 629.334 C 937.732 629.334 966.666 658.264 966.666 694.667 C 966.666 731.07 937.732 760 901.333 760 Z " fill="rgb(96,125,139)"/></g></g></svg>