<?xml version="1.0" encoding="UTF-8" standalone="no"?>
<!-- Generator: Gravit.io -->
<svg xmlns="http://www.w3.org/2000/svg" xmlns:xlink="http://www.w3.org/1999/xlink" style="isolation:isolate" viewBox="995 444 102 102" width="102pt" height="102pt"><path d=" M 1042.077 444 L 1042.077 451.846 L 1049.923 451.846 L 1049.923 444 L 1042.077 444 Z  M 1042.077 459.692 L 1042.077 467.538 L 1049.923 467.538 L 1049.923 459.692 L 1042.077 459.692 Z  M 1042.077 475.385 L 1042.077 509.343 L 1024.18 492.183 L 1018.782 497.817 L 1046 523.96 L 1073.218 497.817 L 1067.82 492.183 L 1049.923 509.343 L 1049.923 475.385 L 1042.077 475.385 Z  M 995 514.615 L 995 534.231 C 995 540.696 1000.304 546 1006.769 546 L 1085.231 546 C 1091.696 546 1097 540.696 1097 534.231 L 1097 514.615 L 1089.154 514.615 L 1089.154 534.231 C 1089.154 536.436 1087.436 538.154 1085.231 538.154 L 1006.769 538.154 C 1005.725 538.167 1004.72 537.757 1003.981 537.019 C 1003.243 536.28 1002.833 535.275 1002.846 534.231 L 1002.846 514.615 L 995 514.615 Z " fill="rgb(42,41,59)"/></svg>