<?xml version="1.0" encoding="UTF-8" standalone="no"?>
<!-- Generator: Gravit.io -->
<svg xmlns="http://www.w3.org/2000/svg" xmlns:xlink="http://www.w3.org/1999/xlink" style="isolation:isolate" viewBox="801.471 407.501 46.059 45.998" width="46.059pt" height="45.998pt"><path d=" M 835.157 407.501 C 834.929 407.534 834.719 407.645 834.563 407.814 L 808.563 433.782 C 808.464 433.89 808.389 434.018 808.344 434.157 L 801.531 452.157 C 801.398 452.522 801.489 452.931 801.766 453.204 C 802.039 453.481 802.448 453.572 802.813 453.438 L 820.813 446.626 C 820.952 446.581 821.08 446.507 821.188 446.407 L 822.469 445.126 C 822.708 445.024 822.898 444.834 823 444.595 L 847.157 420.407 C 847.453 420.165 847.59 419.778 847.504 419.403 C 847.417 419.031 847.126 418.74 846.754 418.653 C 846.38 418.568 845.991 418.703 845.75 419.001 L 821.813 442.907 C 820.807 442.438 819.704 442.213 818.594 442.251 C 818.758 441.806 819.004 441.541 819.094 441.001 C 819.313 439.701 819.196 438.103 818.031 436.938 C 816.864 435.771 815.254 435.661 813.938 435.908 C 813.473 435.993 813.246 436.231 812.844 436.376 C 812.86 436.236 812.903 436.212 812.907 436.063 C 812.938 435.03 812.643 434.013 812.063 433.157 L 835.969 409.221 C 836.264 408.934 836.353 408.496 836.195 408.117 C 836.036 407.737 835.661 407.493 835.25 407.501 L 835.157 407.501 Z  M 810.562 434.657 C 810.812 435.114 810.917 435.56 810.906 436.001 C 810.89 436.681 810.671 437.267 810.53 437.657 C 810.374 438.079 810.519 438.552 810.883 438.815 C 811.248 439.077 811.743 439.064 812.093 438.782 C 812.378 438.56 813.331 438.052 814.281 437.876 C 815.23 437.7 816.073 437.794 816.624 438.345 C 817.179 438.899 817.284 439.747 817.124 440.688 C 816.964 441.63 816.472 442.583 816.281 442.845 C 816.006 443.196 815.996 443.687 816.257 444.049 C 816.517 444.411 816.986 444.557 817.406 444.407 C 818.675 444.021 819.663 444.157 820.343 444.376 L 819.874 444.845 L 808.844 449.031 L 805.969 446.126 L 810.125 435.095 L 810.562 434.657 Z " fill="rgb(42,41,59)"/></svg>