<?xml version="1.0" encoding="UTF-8" standalone="no"?>
<!-- Generator: Gravit.io -->
<svg xmlns="http://www.w3.org/2000/svg" xmlns:xlink="http://www.w3.org/1999/xlink" style="isolation:isolate" viewBox="738 237 267 267" width="267pt" height="267pt"><g><path d=" M 738 237 L 1005 237 L 1005 504 L 738 504 L 738 237 Z " fill="none"/><path d=" M 871.5 287.063 C 815.875 287.063 768.371 321.661 749.125 370.5 C 768.371 419.339 815.875 453.938 871.5 453.938 C 927.125 453.938 974.629 419.339 993.875 370.5 C 974.629 321.661 927.125 287.063 871.5 287.063 Z  M 871.5 426.125 C 840.795 426.125 815.875 401.205 815.875 370.5 C 815.875 339.795 840.795 314.875 871.5 314.875 C 902.205 314.875 927.125 339.795 927.125 370.5 C 927.125 401.205 902.205 426.125 871.5 426.125 Z  M 871.5 337.125 C 853.033 337.125 838.125 352.033 838.125 370.5 C 838.125 388.968 853.033 403.875 871.5 403.875 C 889.968 403.875 904.875 388.968 904.875 370.5 C 904.875 352.033 889.968 337.125 871.5 337.125 Z " fill="rgb(42,41,59)"/></g></svg>