<?xml version="1.0" encoding="UTF-8" standalone="no"?>
<!-- Generator: Gravit.io -->
<svg xmlns="http://www.w3.org/2000/svg" xmlns:xlink="http://www.w3.org/1999/xlink" style="isolation:isolate" viewBox="823 434 448 384" width="448pt" height="384pt"><path d=" M 1248 466 L 1006 466 C 1003.209 466 1001.729 465.415 999.906 463.592 L 977.405 441.091 L 977.237 440.929 C 972.365 436.333 968.361 434 960 434 L 848 434 C 834.215 434 823 444.317 823 457 L 823 793 C 823 806.317 834.683 818 848 818 L 1248 818 C 1260.683 818 1271 806.785 1271 793 L 1271 489 C 1271 475.673 1261.327 466 1248 466 Z  M 848 450 L 960 450 C 963.497 450 963.737 450.189 966.175 452.488 L 988.592 474.906 C 993.432 479.746 998.964 482 1006 482 L 1248 482 C 1252.448 482 1255 484.552 1255 489 L 1255 531.376 C 1252.496 530.488 1249.805 530 1247 530 L 847 530 C 844.195 530 841.504 530.488 839 531.376 L 839 457 C 839 452.677 843.672 450 848 450 Z  M 1255 793 C 1255 797.328 1252.323 802 1248 802 L 848 802 C 843.542 802 839 797.458 839 793 L 839 554 C 839 549.589 842.589 546 847 546 L 1247 546 C 1251.411 546 1255 549.589 1255 554 L 1255 793 Z " fill="rgb(42,41,59)"/></svg>