<?xml version="1.0" encoding="UTF-8" standalone="no"?>
<!-- Generator: Gravit.io -->
<svg xmlns="http://www.w3.org/2000/svg" xmlns:xlink="http://www.w3.org/1999/xlink" style="isolation:isolate" viewBox="1117.299 284.036 246.402 266.928" width="246.402pt" height="266.928pt"><g><path d=" M 1272.17 310.728 C 1272.165 325.474 1284.116 337.431 1298.862 337.436 C 1313.608 337.44 1325.565 325.49 1325.57 310.744 C 1325.574 295.998 1313.624 284.04 1298.878 284.036 C 1284.132 284.031 1272.174 295.982 1272.17 310.728 L 1272.17 310.728 Z  M 1292.611 451.907 L 1255.744 426.649 L 1293.257 366.552 C 1295.404 363.348 1296.899 354.788 1293.701 352.631 L 1272.629 338.485 C 1271.129 337.171 1269.325 336.253 1267.38 335.815 L 1225.237 326.652 C 1221.998 325.968 1218.621 326.621 1215.87 328.462 L 1177.016 358.206 C 1171.324 363.135 1165.866 369.297 1169.62 374.84 C 1172.029 378.423 1180.252 376.383 1184.567 373.761 L 1225.14 351.472 L 1249.08 356.689 L 1216.794 404.674 C 1209.387 417.496 1206.926 427.38 1220.249 438.728 L 1266.141 469.08 L 1243.809 521.973 C 1236.573 539.333 1237.871 548.235 1242.826 550.339 C 1247.782 552.438 1255.071 550.019 1265.372 531.131 L 1297.69 469.849 C 1300.543 463.426 1298.408 455.881 1292.611 451.907 L 1292.611 451.907 Z " fill="rgb(96,125,139)"/><path d=" M 1214.354 447.629 L 1213.814 447.277 L 1213.323 446.855 C 1208.656 442.882 1205.543 438.866 1203.476 434.92 L 1188.027 457.268 C 1188.027 457.268 1146.194 459.794 1133.207 460.547 C 1123.275 461.129 1117.299 464.846 1117.299 471.286 C 1117.299 477.726 1122.329 481.346 1136.651 482.494 C 1148.725 483.466 1195.541 485.976 1195.541 485.976 L 1195.669 485.976 C 1200.491 485.976 1205.543 483.418 1208.859 478.521 L 1225.375 454.929 L 1214.354 447.629 Z  M 1348.516 397.652 L 1313.229 395.121 L 1302.752 371.38 C 1302.586 371.679 1302.432 372.042 1302.255 372.314 L 1287.528 395.901 L 1292.531 407.9 C 1294.261 411.787 1298.197 415.563 1302.421 416.07 C 1302.421 416.07 1337.457 415.435 1345.515 414.991 C 1353.995 414.532 1363.484 412.941 1363.692 407.136 C 1364.002 398.816 1356.141 398.202 1348.516 397.652 Z " fill="rgb(96,125,139)"/></g></svg>