<?xml version="1.0" encoding="UTF-8" standalone="no"?>
<!-- Generator: Gravit.io -->
<svg xmlns="http://www.w3.org/2000/svg" xmlns:xlink="http://www.w3.org/1999/xlink" style="isolation:isolate" viewBox="0 0 500 500" width="500pt" height="500pt"><defs><clipPath id="_clipPath_Rjxw7DbbuhGrmeECEKrNipnbT9hErsnr"><rect width="500" height="500"/></clipPath></defs><g clip-path="url(#_clipPath_Rjxw7DbbuhGrmeECEKrNipnbT9hErsnr)"><path d=" M 368.887 209.176 L 368.887 228.496 C 319.481 233.014 280.339 272.152 275.816 321.558 L 256.505 321.558 L 256.505 340.288 L 275.825 340.288 C 280.343 389.695 319.481 428.837 368.887 433.36 L 368.887 452.671 L 387.618 452.671 L 387.618 433.65 C 428.778 429.951 462.83 401.78 475.707 363.992 L 448.21 377.749 C 434.448 398.385 412.27 411.884 387.618 414.629 L 387.618 396.48 L 368.887 396.48 L 368.887 414.629 C 330.003 410.228 298.939 379.173 294.546 340.288 L 312.696 340.288 L 312.696 321.558 L 294.546 321.558 C 298.948 282.674 330.003 251.609 368.887 247.217 L 368.887 265.367 L 387.618 265.367 L 387.618 247.217 C 412.266 249.965 434.441 263.464 448.201 284.097 L 475.707 297.855 C 462.83 260.066 428.778 231.896 387.618 228.187 L 387.618 209.176 L 368.887 209.176 Z  M 443.809 302.828 L 453.174 330.923 L 443.809 359.019 L 500 330.923 L 443.809 302.828 Z " fill="rgb(14,17,27)"/><path d=" M 313.852 416.284 L 313.852 416.284 L 313.852 416.284 L 313.852 416.284 L 313.852 416.284 Z  M 51.474 47.329 C 23.232 47.329 0 66.33 0 89.428 L 0 342.022 C 0 365.12 23.232 384.121 51.474 384.121 L 274.526 384.121 L 274.526 356.055 L 51.474 356.055 C 46.903 356.108 42.501 354.647 39.269 352.003 C 36.037 349.36 34.25 345.76 34.316 342.022 L 34.316 131.527 L 428.947 131.527 C 438.589 131.527 446.104 137.673 446.104 145.56 L 446.104 243.791 L 480.42 243.791 L 480.42 145.56 C 480.42 122.462 457.188 103.461 428.947 103.461 L 198.997 103.461 L 176.554 69.417 C 167.564 55.807 150.172 47.326 131.258 47.329 L 51.474 47.329 Z  M 51.474 75.395 L 131.223 75.395 C 137.572 75.395 143.337 78.202 146.322 82.748 L 159.98 103.461 L 34.316 103.461 L 34.316 89.428 C 34.316 81.542 41.831 75.395 51.474 75.395 Z " fill="rgb(14,17,27)"/></g></svg>